<?xml version="1.0" encoding="UTF-8"?>
<svg id="Layer_1" data-name="Layer 1" xmlns="http://www.w3.org/2000/svg" viewBox="0 0 255 170">
  <defs>
    <style>
      .cls-1 {
        fill: #fff;
      }

      .cls-1, .cls-2, .cls-3 {
        stroke-width: 0px;
      }

      .cls-2 {
        fill: #231f20;
      }

      .cls-3 {
        fill: #0002a1;
      }
    </style>
  </defs>
  <rect class="cls-3" x="-6.4" y="-4.69" width="268.61" height="179.38"/>
  <g id="Layer_1-2" data-name="Layer 1-2">
    <g>
      <path class="cls-1" d="M123.96,34.24c-20.48,0-39.55,4.15-55.54,11.28,13.81-5.15,29.64-8.08,46.44-8.08,48.28,0,88.37,24.12,96.1,55.77h13.82c-7.78-33.43-49.96-58.98-100.83-58.98Z"/>
      <path class="cls-2" d="M124.45,45.93c14.69,0,28.5,2.56,40.55,7.05-13.95-6.22-30.61-9.85-48.49-9.85-43.69,0-80.03,21.59-87.67,50.09h12.1c7.57-26.93,42.09-47.29,83.52-47.29Z"/>
      <g>
        <path class="cls-1" d="M79.04,113.15h15.26c1.2,0,2.39-.11,3.58-.33,1.19-.23,2.3-.59,3.32-1.09,1.03-.5,1.95-1.17,2.78-2s1.51-1.86,2.05-3.08c.41-.98.6-1.79.62-2.46,0-.67-.07-1.22-.23-1.66-.2-.5-.5-.93-.9-1.25h-20.35l-6.14,11.89v-.02ZM95.45,103.12c.52,0,.88.15,1.09.42.21.28.21.62-.02,1.01l-1.07,2.17c-.23.42-.59.77-1.09,1.04-.5.28-.99.42-1.48.42h-1.76l2.65-5.05h1.68v-.02Z"/>
        <path class="cls-1" d="M109.67,98.09c.67-.75,1.29-1.64,1.82-2.7.52-.99.73-1.89.67-2.69s-.37-1.48-.93-2.04c-.54-.57-1.27-1.01-2.18-1.34s-1.95-.5-3.13-.55v-.03h-14.26l-5.75,11.15h21.84c.62-.46,1.27-1.06,1.94-1.81h-.02ZM101.04,95.84l-.29.64c-.2.39-.55.73-1.07,1.01s-1.01.42-1.5.42h-1.71l1.84-3.52h1.68c.52,0,.88.15,1.09.44.21.29.21.64-.02,1.03l-.02-.02Z"/>
        <polygon class="cls-1" points="104.33 113.15 122.92 113.15 125.88 107.5 116.49 107.5 119.76 101.26 110.56 101.26 104.33 113.15"/>
        <polygon class="cls-1" points="126.31 88.74 117.14 88.74 111.28 99.89 120.48 99.89 126.31 88.74"/>
        <polygon class="cls-1" points="147 88.74 137.76 88.74 131.91 99.89 141.39 99.89 147 88.74"/>
        <path class="cls-1" d="M141.91,106.02c-.23.39-.59.73-1.09,1.03s-1.01.42-1.51.42-.83-.15-1.03-.42c-.2-.29-.18-.64.05-1.03l2.39-4.75h-9.51l-2.83,5.41c-.15.29-.24.59-.33.88-.07.29-.11.6-.11.91-.08.72,0,1.37.28,1.97s.77,1.14,1.48,1.6,1.69.81,2.93,1.07,2.8.39,4.69.39c1.68,0,3.14-.07,4.36-.18s2.28-.31,3.14-.55c.88-.24,1.61-.54,2.21-.9.6-.36,1.11-.75,1.55-1.19.29-.29.55-.6.8-.93s.46-.68.67-1.06l3.88-7.44h-9.53l-2.49,4.75v.02Z"/>
        <polygon class="cls-1" points="160.45 88.74 150.99 88.74 145.13 99.89 154.64 99.89 160.45 88.74"/>
        <polygon class="cls-1" points="178.94 97.88 167.75 97.88 169.46 94.78 183.35 94.78 186.51 88.74 163.37 88.74 157.52 99.89 177.88 99.89 178.94 97.88"/>
        <polygon class="cls-1" points="175.89 103.72 177.16 101.26 156.79 101.26 150.55 113.15 173.69 113.15 177 106.8 163.11 106.8 164.79 103.72 175.89 103.72"/>
      </g>
      <g>
        <path class="cls-1" d="M47.48,127.59c.86.55,1.69,1.06,2.46,1.51s1.38.88,1.84,1.3c.46.41.57.83.34,1.29-.41.78-.81,1.34-1.24,1.66s-.99.5-1.71.5c-.54,0-.85-.16-.93-.47-.07-.31-.03-.68.11-1.12,0-.05,0-.1.02-.16,0-.07.05-.15.11-.23.37-.64.37-1.09,0-1.35-.37-.26-.88-.37-1.5-.37h-7.59c-.72,1.4-1.03,2.65-.93,3.78s.55,2.07,1.37,2.85,1.97,1.38,3.45,1.81c1.48.42,3.26.64,5.31.64,1.81,0,3.37-.1,4.71-.28,1.34-.2,2.52-.5,3.53-.94s1.87-1.03,2.59-1.74,1.34-1.61,1.89-2.69c.68-1.3.96-2.46.81-3.42-.15-.98-.52-1.84-1.14-2.57-.23-.28-.49-.54-.75-.78h-13.95c.36.31.73.59,1.16.85l.03-.05Z"/>
        <path class="cls-1" d="M56.34,124.09c-.77-.46-1.38-.88-1.84-1.29s-.57-.83-.34-1.3c.41-.78.81-1.34,1.24-1.66s.99-.5,1.71-.5c.57,0,.88.16.94.49.05.33,0,.73-.18,1.2,0,.11-.05.21-.13.29-.03.08-.07.16-.08.23-.03.07-.07.15-.08.23-.15.47-.03.78.33.96.36.18.81.26,1.35.26h7.62c.72-1.37,1.03-2.62.93-3.73s-.55-2.07-1.37-2.85-1.97-1.38-3.45-1.81c-1.48-.42-3.26-.65-5.31-.65-1.81,0-3.37.1-4.71.28-1.34.2-2.52.5-3.53.94s-1.87,1.03-2.59,1.74c-.72.72-1.34,1.61-1.89,2.67-.68,1.3-.96,2.46-.81,3.44.13.86.44,1.61.91,2.28h13.38c-.73-.46-1.43-.88-2.08-1.27l-.02.05Z"/>
        <polygon class="cls-1" points="84.95 120.05 92.62 120.05 95.58 114.4 71.29 114.4 68.32 120.05 75.78 120.05 73 125.36 82.16 125.36 84.95 120.05"/>
        <polygon class="cls-1" points="65.93 138.81 75.1 138.81 81.45 126.73 72.28 126.73 65.93 138.81"/>
        <path class="cls-1" d="M114.63,124.32c.64-.64,1.17-1.38,1.63-2.28.42-.85.67-1.69.73-2.54s-.15-1.64-.6-2.36c-.46-.72-1.17-1.32-2.15-1.81s-2.26-.78-3.91-.9v-.03h-13.45l-5.67,10.96h22.24c.41-.33.8-.67,1.17-1.04ZM106.31,121.52l-.47.9c-.23.39-.59.75-1.09,1.03-.5.29-.99.44-1.48.44h-1.76l2.02-3.83h1.71c.49,0,.83.15,1.06.44.21.29.23.64.02,1.03Z"/>
        <path class="cls-1" d="M84.25,138.81h9.48l4.33-8.34h1.84c.49,0,.86.15,1.11.44.26.29.29.64.08,1.03l-2.87,5.49c-.23.47-.16.81.2,1.04.36.23.72.34,1.09.34h8.01l2.62-5.02c.75-1.43.96-2.7.64-3.79s-1.12-1.79-2.44-2.13c.68-.23,1.4-.49,2.15-.78.28-.11.55-.24.81-.37h-20.79l-6.25,12.08v.02Z"/>
        <polygon class="cls-1" points="137.74 123.54 126.55 123.54 128.26 120.44 142.15 120.44 145.31 114.4 122.17 114.4 116.42 125.36 136.78 125.36 137.74 123.54"/>
        <polygon class="cls-1" points="109.37 138.81 132.51 138.81 135.8 132.48 121.93 132.48 123.59 129.38 134.69 129.38 136.06 126.73 115.71 126.73 109.37 138.81"/>
        <path class="cls-1" d="M153.76,121.5c.23-.39.59-.75,1.09-1.03.5-.29,1.01-.44,1.51-.44s.83.15,1.03.44.18.64-.05,1.03l-1.94,3.84h9.54l2.34-4.48c.29-.57.42-1.17.42-1.79.08-.68,0-1.34-.28-1.95s-.77-1.16-1.48-1.63-1.69-.83-2.93-1.09-2.8-.39-4.69-.39c-1.69,0-3.14.07-4.36.18s-2.28.31-3.18.55c-.88.24-1.63.54-2.21.9-.59.36-1.09.77-1.51,1.22-.57.54-1.06,1.19-1.45,1.99l-3.39,6.51h9.49l2.04-3.84v-.02Z"/>
        <polygon class="cls-1" points="135.2 138.81 144.68 138.81 147.54 133.28 151.45 133.28 148.67 138.81 157.91 138.81 164.23 126.73 141.5 126.73 135.2 138.81"/>
        <path class="cls-1" d="M160.88,138.81h9.17l5.36-10.19,1.63,9.2c.15.67.72.99,1.71.99h7.67l-2.17-12.08h-17.03l-6.33,12.08Z"/>
        <path class="cls-1" d="M199.22,114.4h-8.53c-.64,0-1.27.1-1.91.29s-1.19.47-1.64.83l-8.48,6.9,4.2-8.04h-9.17l-5.75,10.96h17.81l13.48-10.96-.02.02Z"/>
        <path class="cls-1" d="M198.02,127.59c.86.55,1.69,1.06,2.46,1.51s1.38.88,1.84,1.3c.46.41.57.83.34,1.29-.41.78-.81,1.34-1.24,1.66s-.99.5-1.71.5c-.54,0-.85-.16-.93-.47-.07-.31-.03-.68.11-1.12,0-.05,0-.1.02-.16,0-.07.05-.15.11-.23.37-.64.37-1.09,0-1.35-.37-.26-.88-.37-1.5-.37h-7.59c-.72,1.4-1.03,2.65-.93,3.78s.55,2.07,1.37,2.85,1.97,1.38,3.45,1.81c1.48.42,3.26.64,5.31.64,1.81,0,3.37-.1,4.71-.28,1.34-.2,2.52-.5,3.53-.94,1.01-.44,1.87-1.03,2.59-1.74.72-.72,1.34-1.61,1.89-2.69.68-1.3.96-2.46.81-3.42-.15-.98-.52-1.84-1.14-2.57-.23-.28-.49-.54-.75-.78h-13.95c.36.31.73.59,1.16.85l.03-.05Z"/>
        <path class="cls-1" d="M206.86,124.09c-.77-.46-1.38-.88-1.84-1.29s-.57-.83-.34-1.3c.41-.78.81-1.34,1.24-1.66s.99-.5,1.71-.5c.57,0,.88.16.94.49.05.33,0,.73-.18,1.2,0,.11-.05.21-.13.29-.03.08-.07.16-.08.23-.03.07-.07.15-.08.23-.15.47-.03.78.33.96.36.18.81.26,1.35.26h7.62c.72-1.37,1.03-2.62.93-3.73s-.55-2.07-1.37-2.85-1.97-1.38-3.45-1.81c-1.48-.42-3.26-.65-5.31-.65-1.81,0-3.37.1-4.71.28-1.34.2-2.52.5-3.53.94-1.01.44-1.87,1.03-2.59,1.74-.72.72-1.34,1.61-1.89,2.67-.68,1.3-.96,2.46-.81,3.44.13.86.44,1.61.91,2.28h13.38c-.73-.46-1.43-.88-2.08-1.27l-.02.05Z"/>
      </g>
      <g>
        <path class="cls-1" d="M192.11,85.63c0-9.66-24.38-25.61-24.38-25.61,0,0-13.81-1.35-14.83,0-1.01,1.35,8.65,5.62,8.65,5.62,0,0-2.48-3.14-1.79-3.6.67-.46,7.2.46,7.2.46,0,0,21.01,11.68,25.16,23.14Z"/>
        <path class="cls-1" d="M190.87,85.74s-14.15-4.15-15.27-12.8c4.38,6.07,12.25,6.97,12.25,6.97l3.03,5.85v-.02Z"/>
        <path class="cls-2" d="M167.96,67.31c4.61,2.25,3.94,7.52,3.94,7.52l-15.39-2.7-24.72,8.21,25.39-5.73,16.74,2.48s.78-8.99-5.96-9.77Z"/>
        <path class="cls-1" d="M83.83,63.62l18.09,2.25s6.63,9.54,8.42,10.23c1.79.67,20,4.27,20,4.27l3.92,3.26-5.05-1.91-20.66-3.48-8.42-10.45-16.28-4.15h-.02Z"/>
        <path class="cls-1" d="M98.09,68.32l-27.29-7.08,4.04,6.51s21.56,9.44,26.17,13.25c-5.16-6.29-24.15-13.92-24.15-13.92l-.57-2.48,21.79,3.71h.02Z"/>
        <polygon class="cls-1" points="81.69 72.93 92.15 77.54 79.56 87.42 88.32 78.43 81.69 72.93"/>
        <path class="cls-1" d="M98.06,86.18c.47-1.11.94-2.26,1.45-3.4-1.27-.33-2.59-.49-3.96-.49-8.22,0-15.03,6.22-16.02,14.25,2.44-6.16,8.7-10.52,16.02-10.52.85,0,1.68.07,2.51.18v-.02Z"/>
      </g>
    </g>
    <g>
      <path class="cls-1" d="M218.64,107.07v.97h-1.31v3.99h-1.21v-3.99h-1.31v-.97h3.84Z"/>
      <path class="cls-1" d="M224.87,107.07v4.96h-1.21v-2.97l-1.11,2.97h-.98l-1.12-2.98v2.98h-1.21v-4.96h1.43l1.39,3.43,1.38-3.43h1.42Z"/>
    </g>
  </g>
</svg>